<?xml version="1.0" encoding="utf-8"?>
<!-- Generator: Adobe Illustrator 28.0.0, SVG Export Plug-In . SVG Version: 6.00 Build 0)  -->
<svg version="1.1" id="layer_1" x="1280" y="450" xmlns="http://www.w3.org/2000/svg" xmlns:xlink="http://www.w3.org/1999/xlink" viewBox="0 0 1280 450" style="enable-background:new 0 0 1280 450;" xml:space="preserve">
<style type="text/css">
	.st0{fill:url(#SVGID_1_);}
	.st1{fill:url(#SVGID_00000080198609707569116770000003740100534700160938_);}
	.st2{fill:url(#SVGID_00000059280515827321420170000000490282216478152586_);}
	.st3{fill:none;}
</style>
<linearGradient id="SVGID_1_" gradientUnits="userSpaceOnUse" x1="82.415" y1="202.9822" x2="228.2925" y2="202.9822">
	<stop  offset="0" style="stop-color:#D9BA56"/>
	<stop  offset="1" style="stop-color:#7E712A"/>
</linearGradient>
<path class="st0" d="M193.57,217.86l14.02-14.02l-30.77-30.83l-94.4,95.22l0-42.37l84.05-83.85c5.7-5.7,14.89-5.7,20.65,0
	l41.18,41.18l-47,47L193.57,217.86z"/>
<linearGradient id="SVGID_00000178893957859631499200000001712692386834772103_" gradientUnits="userSpaceOnUse" x1="116.7599" y1="213.1393" x2="365.5975" y2="213.1393">
	<stop  offset="0" style="stop-color:#8CC63F"/>
	<stop  offset="1" style="stop-color:#006837"/>
</linearGradient>
<path style="fill:url(#SVGID_00000178893957859631499200000001712692386834772103_);" d="M222.48,183.19l62.18-62.18
	c5.7-5.76,15.01-5.76,20.71,0l55.52,55.52c4.82,4.82,6.31,12.45,2.75,18.27c-5.17,8.45-16.37,9.41-22.91,2.88l-45.72-45.66
	L141.68,305.28c-2.85,2.85-6.57,4.3-10.35,4.3c-3.72,0-7.5-1.45-10.3-4.3c-5.7-5.7-5.7-14.95,0-20.71l54.44-54.39"/>
<linearGradient id="SVGID_00000149363702181950557250000016202120649788669630_" gradientUnits="userSpaceOnUse" x1="198.5622" y1="270.9293" x2="370.9949" y2="270.9293">
	<stop  offset="0" style="stop-color:#4FB3DD"/>
	<stop  offset="1" style="stop-color:#0E5C84"/>
</linearGradient>
<path style="fill:url(#SVGID_00000149363702181950557250000016202120649788669630_);" d="M363.87,295.96
	c-5.81,3.58-13.45,2.12-18.28-2.71l-45.26-45.21l-76.79,76.79c-2.83,2.83-6.56,4.27-10.3,4.27c-4.76,0-9.51-2.34-12.51-6.9
	c-3.78-5.76-2.4-13.52,2.48-18.4l86.77-86.77c5.72-5.72,14.99-5.72,20.71,0l56.03,56.03C373.25,279.61,372.3,290.76,363.87,295.96z"
	/>
<g>
	<path d="M581.08,111.06h-31.26v18.55c-0.14,16.4,2.96,30.62,9.28,42.65c6.32,12.03,14.99,20.13,26.01,24.3v19.16
		c-6.19-0.81-12.1-2.59-17.75-5.34c-5.65-2.75-10.76-5.95-15.33-9.58c-4.44-3.49-8.2-7.12-11.29-10.89
		c-3.09-3.76-5.04-7.06-5.85-9.88c-0.94,2.82-2.89,6.12-5.85,9.88c-2.96,3.77-6.65,7.4-11.09,10.89c-4.3,3.5-9.21,6.62-14.72,9.38
		c-5.51,2.76-11.16,4.61-16.94,5.55v-19.16c10.89-4.3,19.46-12.4,25.71-24.3c6.25-11.9,9.44-26.25,9.58-43.05v-18.15h-32.26V92.91
		h91.75V111.06z M633.52,82.83v182.5h-27.22V82.83H633.52z"/>
	<path d="M724.86,82.83c7.39,0,14.59,1.68,21.58,5.04c6.99,3.36,12.84,8.07,17.54,14.12h35.89V82.83h27.22v101.83h-27.22V164.5
		h-38.92c-4.57,4.84-10.02,8.57-16.33,11.19c-6.32,2.62-12.91,3.93-19.76,3.93c-6.32,0-12.44-1.07-18.35-3.23
		c-5.92-2.15-11.09-5.31-15.53-9.48c-4.57-4.17-8.24-9.21-10.99-15.12c-2.76-5.91-4.13-12.7-4.13-20.37
		c0-7.12,1.34-13.64,4.03-19.56c2.69-5.91,6.32-11.02,10.89-15.33c4.57-4.3,9.81-7.66,15.73-10.08
		C712.43,84.04,718.54,82.83,724.86,82.83z M724.86,100.98c-5.24,0-10.18,2.56-14.82,7.66c-4.64,5.11-6.96,12.7-6.96,22.79
		c0,9.55,2.28,16.94,6.86,22.18c4.57,5.24,9.48,7.86,14.72,7.86s10.18-2.59,14.82-7.76c4.64-5.17,6.96-12.6,6.96-22.28
		c0-10.08-2.25-17.68-6.75-22.79C735.18,103.53,730.24,100.98,724.86,100.98z M827.1,267.34h-27.22v-54.45h-91.75v-18.15H827.1
		V267.34z M772.45,120.13c0.4,1.88,0.71,3.73,0.91,5.55c0.2,1.81,0.3,3.73,0.3,5.75c0,2.69-0.2,5.28-0.61,7.76
		c-0.4,2.49-0.94,4.87-1.61,7.16h28.43v-26.22H772.45z"/>
	<path d="M916.43,85.85c7.66,0,15.05,1.85,22.18,5.55c7.12,3.7,12.97,8.84,17.54,15.43h35.29v-24h27.22v132.08h-27.22v-45.57h-37.1
		c-4.71,5.92-10.38,10.49-17.04,13.71c-6.65,3.23-13.61,4.84-20.87,4.84c-6.32,0-12.44-1.18-18.35-3.53
		c-5.92-2.35-11.09-5.75-15.53-10.18c-4.57-4.3-8.24-9.61-10.99-15.93c-2.76-6.32-4.13-13.44-4.13-21.38
		c0-7.26,1.34-14.01,4.03-20.27c2.69-6.25,6.32-11.6,10.89-16.03c4.57-4.57,9.78-8.17,15.63-10.79S909.98,85.85,916.43,85.85z
		 M916.43,104c-2.55,0-5.11,0.74-7.66,2.22c-2.56,1.48-4.91,3.63-7.06,6.45c-2.15,2.82-3.87,6.25-5.14,10.28
		c-1.28,4.03-1.92,8.67-1.92,13.91c0,5.11,0.64,9.71,1.92,13.81c1.28,4.1,2.92,7.56,4.94,10.39c2.15,2.82,4.5,4.98,7.06,6.45
		c2.55,1.48,5.11,2.22,7.66,2.22c2.55,0,5.11-0.74,7.66-2.22c2.55-1.48,4.91-3.63,7.06-6.45c2.02-2.82,3.7-6.28,5.04-10.39
		c1.34-4.1,2.02-8.7,2.02-13.81c0-10.62-2.29-18.75-6.86-24.4C926.58,106.82,921.68,104,916.43,104z M934.99,247.18h83.69v18.15
		h-99.62c-5.65,0-10.28-2.42-13.91-7.26c-3.63-4.84-5.45-10.49-5.45-16.94v-42.35h27.22v40.33c0,2.42,0.74,4.37,2.22,5.85
		C930.62,246.44,932.57,247.18,934.99,247.18z M964.02,124.97c0.4,2.02,0.71,4,0.91,5.95c0.2,1.95,0.3,3.93,0.3,5.95
		c0,2.56-0.17,5.04-0.5,7.46c-0.34,2.42-0.78,4.71-1.31,6.86h28.03v-26.21H964.02z"/>
	<path d="M1107.4,111.06h-45.37V92.91h73.6v20.17h19.16V82.83H1181v182.5h-26.21v-71.59h-31.05v-18.15h31.05v-44.36h-20.37
		c-1.48,10.49-4.2,20.44-8.17,29.84c-3.97,9.41-9.04,17.81-15.22,25.21c-6.19,7.53-13.48,13.85-21.88,18.96
		c-8.4,5.11-17.78,8.6-28.13,10.49v-18.35c7.26-2.82,13.74-6.89,19.46-12.2c5.71-5.31,10.52-11.39,14.42-18.25
		c4.03-6.99,7.09-14.58,9.18-22.79c2.08-8.2,3.19-16.74,3.33-25.61V111.06z M1218.31,82.83v182.5h-26.21V82.83H1218.31z"/>
</g>
<g>
	<path d="M513.61,346.82h-4.38v24.59h-12.76v-65.2h18.63c7.33,0,13.01,1.75,17.04,5.26c4.04,3.51,6.05,8.37,6.05,14.58
		c0,6.15-2.13,11.15-6.38,15C527.56,344.9,521.49,346.82,513.61,346.82z M509.23,314.69v24.12h4.38c3.29,0,6.05-1.04,8.29-3.12
		c2.24-2.08,3.35-5.36,3.35-9.83c0-3.1-0.95-5.74-2.84-7.92c-1.9-2.17-4.74-3.26-8.52-3.26H509.23z"/>
	<path d="M584.67,371.41v-65.2h19.93c2.98,0,5.74,0.45,8.29,1.35c2.54,0.9,4.75,2.13,6.61,3.68c1.86,1.55,3.32,3.42,4.38,5.59
		c1.05,2.17,1.58,4.5,1.58,6.99c0,4.66-0.85,8.46-2.56,11.41c-1.71,2.95-3.96,5.29-6.75,7.03c1.18,2.42,2.4,4.86,3.68,7.31
		s2.56,4.89,3.87,7.31c1.3,2.42,2.59,4.86,3.87,7.31c1.27,2.45,2.53,4.86,3.77,7.22h-14.25l-12.85-26.17h-6.71v26.17H584.67z
		 M597.53,314.69v22.07h3.73c2.24,0,4.08-0.36,5.54-1.07c1.46-0.71,2.62-1.63,3.49-2.75c0.81-1.12,1.38-2.34,1.72-3.68
		c0.34-1.33,0.51-2.62,0.51-3.87c0-3.66-0.88-6.36-2.65-8.1s-3.96-2.61-6.57-2.61H597.53z"/>
	<path d="M674.27,338.81c0-4.78,0.78-9.22,2.33-13.32c1.55-4.1,3.73-7.64,6.52-10.62s6.08-5.32,9.87-7.03
		c3.79-1.71,7.92-2.56,12.39-2.56c4.41,0,8.52,0.85,12.34,2.56c3.82,1.71,7.13,4.05,9.92,7.03s4.98,6.52,6.57,10.62
		c1.58,4.1,2.38,8.54,2.38,13.32c0,4.84-0.79,9.31-2.38,13.41c-1.58,4.1-3.77,7.64-6.57,10.62s-6.1,5.31-9.92,6.99
		c-3.82,1.68-7.93,2.51-12.34,2.51c-4.47,0-8.6-0.84-12.39-2.51c-3.79-1.68-7.08-4.01-9.87-6.99s-4.97-6.52-6.52-10.62
		C675.05,348.12,674.27,343.65,674.27,338.81z M687.41,338.81c0,3.66,0.48,7.02,1.44,10.06c0.96,3.04,2.25,5.65,3.87,7.82
		c1.68,2.24,3.6,3.94,5.77,5.12c2.17,1.18,4.47,1.77,6.89,1.77s4.72-0.59,6.89-1.77c2.17-1.18,4.1-2.89,5.77-5.12
		c1.61-2.17,2.92-4.78,3.91-7.82c0.99-3.04,1.49-6.39,1.49-10.06c0-3.6-0.5-6.92-1.49-9.97c-0.99-3.04-2.3-5.65-3.91-7.82
		c-1.68-2.24-3.6-3.96-5.77-5.17c-2.17-1.21-4.47-1.82-6.89-1.82s-4.72,0.61-6.89,1.82c-2.17,1.21-4.1,2.93-5.77,5.17
		c-1.62,2.17-2.9,4.78-3.87,7.82C687.89,331.89,687.41,335.21,687.41,338.81z"/>
	<path d="M786.79,306.21h12.76v61.94c0,3.41-0.61,6.43-1.82,9.03c-1.21,2.61-2.81,4.81-4.8,6.61c-1.99,1.74-4.25,3.06-6.8,3.96
		c-2.55,0.9-5.12,1.35-7.73,1.35v-8.2c2.79-0.56,4.89-1.99,6.29-4.28c1.4-2.3,2.1-5.12,2.1-8.48V306.21z"/>
	<path d="M884.96,306.21v8.48h-24.22v18.26h23.56v8.48h-23.56v21.52h26.17v8.48h-38.93v-65.2H884.96z"/>
	<path d="M984.99,310.03l-2.24,9.41c-2.05-1.49-4.55-2.81-7.5-3.96c-2.95-1.15-5.82-1.72-8.62-1.72c-3.48,0-6.6,0.62-9.36,1.86
		c-2.76,1.24-5.14,2.95-7.12,5.12c-1.93,2.17-3.42,4.78-4.47,7.82c-1.06,3.04-1.58,6.37-1.58,9.97c0,3.91,0.59,7.42,1.77,10.53
		c1.18,3.11,2.79,5.77,4.84,8.01c2.05,2.17,4.46,3.83,7.22,4.98c2.76,1.15,5.73,1.72,8.89,1.72c2.79,0,5.56-0.48,8.29-1.44
		c2.73-0.96,5.22-2.16,7.45-3.59l2.05,9.22c-2.48,1.3-5.42,2.36-8.8,3.17c-3.38,0.81-6.66,1.21-9.83,1.21
		c-5.71,0-10.74-0.81-15.09-2.42c-4.35-1.61-8.01-3.91-10.99-6.89c-2.92-2.98-5.14-6.55-6.66-10.71c-1.52-4.16-2.28-8.75-2.28-13.79
		c0-4.47,0.76-8.71,2.28-12.71c1.52-4.01,3.77-7.53,6.75-10.57c2.98-3.04,6.66-5.46,11.04-7.26c4.38-1.8,9.45-2.7,15.23-2.7
		c3.35,0,6.77,0.44,10.25,1.3C979.99,307.45,982.82,308.6,984.99,310.03z"/>
	<path d="M1058.01,371.41h-12.76v-56.72h-19.28v-8.48h51.41v8.48h-19.37V371.41z"/>
</g>
<line class="st3" x1="66.36" y1="278.06" x2="66.36" y2="265.2"/>
<path d="M241.46,419.18c-1.2,0.34-2.39,0.51-3.64,0.51c-1.08,0-2.16-0.11-3.25-0.4c-7.29-1.82-178.1-45.78-178.1-143.65v-18.45
	c0-3.53,1.37-6.95,3.93-9.45l22.02-21.88l0.82,49.78c0,62.46,108.3,104.54,154.41,116.78c158.51-45.89,154.64-114.67,154.59-115.41
	c-0.06-0.34-0.11-0.97-0.11-1.37V78.07H83.23v85.01c0,7.4-5.98,13.38-13.38,13.38c-7.4,0-13.38-5.98-13.38-13.38V64.69
	c0-7.4,5.98-13.38,13.38-13.38H405.5c7.4,0,13.38,5.98,13.38,13.38v210.44C419.62,286.17,419.05,368.9,241.46,419.18z"/>
</svg>
